<svg width="85px" height="18px" viewBox="155 0 400 151" version="1.1" xmlns="http://www.w3.org/2000/svg" xmlns:xlink="http://www.w3.org/1999/xlink">
    <g id="Page-1" stroke="none" stroke-width="1" fill="none" fill-rule="evenodd">
        <g id="Group" transform="translate(-40.000000, -20.000000)">
            <rect id="Rectangle" x="0" y="0" width="782" height="191"></rect>
            <path d="M554.514074,150.527898 C555.820971,147.998201 558.93498,147.410158 561.224692,148.678704 C562.288527,149.266748 563.162141,150.564882 563.475655,151.755762 C563.827919,153.087182 563.898371,153.301688 563.475655,154.492569 C563.306569,154.988153 563.13396,155.483737 562.961351,155.979321 C561.763655,159.404027 560.565959,162.83613 559.368264,166.268233 C558.910321,167.584859 558.237498,168.583424 557.117301,169.345291 C557.105833,169.35304 557.094334,169.360716 557.082804,169.368319 C556.780406,169.684323 556.439896,169.955962 556.092881,170.156062 C555.572917,170.479971 555.012377,170.652445 554.414442,170.685361 C553.838111,170.811145 553.268023,170.788862 552.69726,170.617182 C548.755354,170.104438 545.002618,168.926782 541.407596,167.321783 C540.36234,166.860335 539.699772,165.758502 539.373138,164.73533 C539.028999,163.646832 539.302931,162.46592 539.841008,161.475197 C540.354175,160.526155 541.480947,159.737314 542.527485,159.456895 C543.723966,159.136299 544.783236,159.380764 545.863193,159.861557 C546.302251,160.055797 546.739717,160.244099 547.180917,160.421853 L546.591,160.176 L546.810136,160.261614 C547.98115,160.702356 549.174497,161.083544 550.386045,161.403722 C551.324409,157.6211 552.741571,153.953645 554.514074,150.527898 Z M575.670939,147.071297 C577.585267,145.580179 580.446085,145.680302 582.175385,147.457486 C584.668991,150.022634 586.709858,153.107084 588.070486,156.453114 L590.025783,155.74842 L590.025783,155.74842 L594.270491,154.215221 C594.956617,154.005429 595.642743,153.976492 596.328868,154.124793 C597.014994,154.157347 597.656615,154.352671 598.250021,154.721615 C598.995487,155.191838 599.618564,155.803128 600.100706,156.530166 C600.720074,157.466995 600.861008,158.667873 600.712656,159.742152 C600.682986,160.411316 600.479003,161.033457 600.100706,161.612194 C599.833673,161.952201 599.562932,162.292209 599.29219,162.635834 C598.416916,163.399042 597.523098,163.930756 596.462385,164.390128 C595.119803,164.972481 593.754969,165.511429 592.371591,165.996121 C590.265,166.73401 587.704181,167.785802 585.47149,168.020914 C585.334792,168.034986 585.202584,168.035342 585.074359,168.023729 C584.524781,168.052881 583.978149,167.998307 583.495489,167.864702 C582.363971,167.550029 581.083008,166.648922 580.535041,165.5726 C580.285965,165.082712 580.03333,164.585673 579.780696,164.088634 C577.983789,160.559297 576.186883,157.026385 574.397093,153.489897 C573.254901,151.251433 573.656981,148.630355 575.670939,147.071297 Z M476.56167,27.3607899 L491.31567,126.28279 C492.36067,131.86479 485.55267,137.78279 479.47867,138.91879 L478.854467,139.035229 C472.820508,140.153115 466.843737,140.926223 465.88867,130.75979 L455.32367,74.2877899 L440.73067,99.8357899 C437.61167,104.32579 435.15167,106.26679 430.55667,107.12679 C426.12467,107.95579 423.18267,107.21579 419.22667,103.85879 L396.38967,85.3127899 L405.69067,135.03279 C409.85067,150.41079 403.45267,153.05179 397.07067,154.33579 C391.04867,155.54779 379.27267,155.19979 377.02467,143.91179 L362.04567,49.2597899 C360.87967,43.0277899 368.79267,36.7867899 375.52067,35.5287899 C380.77367,34.5457899 385.27567,35.9107899 388.21167,39.7777899 L424.19167,76.8257899 L446.62067,28.6857899 C448.02767,23.4907899 452.18467,21.1857899 456.77967,20.3267899 C463.51167,19.0677899 475.45667,21.4537899 476.56167,27.3607899 Z M156.03437,33.7810899 L162.20337,133.60709 C163.23637,143.75209 161.06137,144.01409 154.91237,144.62209 C148.59537,145.24709 137.84037,144.53209 136.48437,135.87509 L130.82937,78.7020899 L116.37637,101.31509 C114.67537,103.90209 112.51837,108.68509 103.74537,110.29009 C99.3093704,111.10109 96.9283704,109.19809 92.3163704,105.04909 L71.1633704,84.6040899 L76.1423704,134.94009 C76.7853704,148.29609 72.3673704,152.78709 65.8893704,153.42909 C59.5713704,154.05409 48.1883704,155.17909 46.8163704,141.31509 L40.0573704,45.7230899 C39.2133704,34.8670899 47.8533704,33.8790899 54.6653704,33.2050899 C59.9833704,32.6790899 62.2523704,32.5880899 66.9423704,38.5320899 L99.5943704,78.5460899 L126.09037,32.5200899 C127.94037,27.4640899 137.87337,24.9740899 142.52537,24.5140899 C149.34137,23.8400899 155.00937,23.4130899 156.03437,33.7810899 Z M307.56897,39.1409899 L307.86197,136.83599 C307.11597,147.68299 303.33197,147.89499 296.82097,148.17999 C290.47797,148.45699 281.33197,147.24799 280.75497,138.02399 L278.02297,75.6219899 L243.29397,147.29499 C241.33997,151.058981 235.67997,150.85799 231.34497,151.04799 C224.00297,151.36899 215.46997,144.62899 214.37697,134.71699 L208.43397,45.9989899 C207.78297,31.1409899 214.97597,30.9039899 221.48897,30.6189899 C227.82297,30.3419899 237.28797,34.9419899 237.54497,40.7849899 L240.30697,103.84699 C254.48297,76.3139899 262.32797,60.7569899 276.05597,34.4139899 C278.01897,29.6989899 286.36297,27.7779899 290.86697,27.5809899 L291.298865,27.5623478 C298.249134,27.2682169 307.046848,27.253643 307.56897,39.1409899 Z M711.21027,23.3771899 C712.66427,23.4231899 717.03527,24.1201899 718.45127,24.3311899 C726.18127,25.6401899 730.99027,26.3231899 738.70727,27.6301899 C741.53027,28.2081899 742.61727,29.6601899 742.34827,32.5291899 C741.52827,41.3051899 740.68727,49.9091899 739.61627,58.4761899 C739.304732,60.9704207 739.344525,61.319681 739.178248,62.4763279 L739.157,62.619 L738.28303,67.418852 C736.821965,75.4175788 735.335437,83.4120232 733.74127,91.3911899 C731.94827,101.31219 729.19127,111.07819 725.96927,120.78619 C724.52327,125.09919 721.87427,128.74619 718.91627,132.34719 C717.08627,134.82519 714.30727,137.19819 711.78727,138.91519 C707.44327,142.22219 702.46927,143.97019 697.58027,145.33419 C694.68327,145.87219 695.07727,145.76919 692.43627,146.15319 C691.08027,146.35119 690.06927,146.49619 687.07827,146.66919 C685.09227,146.78419 684.66827,146.79919 682.51027,146.64419 C677.40627,146.28019 672.43327,144.82819 667.68327,143.14619 C665.32027,142.24619 664.21627,141.65019 662.12827,140.22719 C660.64527,139.21719 658.65327,137.85319 656.21327,135.56119 C651.76627,131.35819 649.94127,128.71119 646.99427,123.57319 C643.98427,118.76819 642.00127,113.61519 640.88527,108.11819 C640.24727,104.79719 639.98027,101.19019 640.65327,97.7371899 C641.31227,93.3071899 642.30527,88.7681899 643.13127,84.3631899 C643.45127,83.2781899 643.65727,82.5311899 644.12727,81.3061899 C644.65627,79.9251899 645.72827,79.0621899 647.35827,78.9891899 C648.23827,78.8961899 648.56427,78.8981899 649.41527,78.8711899 C650.54527,78.8351899 651.70627,78.8471899 652.81327,79.0121899 C657.72027,79.7431899 662.64927,80.3191899 667.51927,81.2021899 C669.90227,81.5571899 672.40127,82.1001899 674.91527,82.6321899 C676.15427,82.9751899 676.96627,84.0691899 676.90927,85.5091899 C676.79027,86.3081899 676.64827,87.2611899 676.53127,88.0461899 C675.78827,91.9771899 676.14027,96.0701899 676.52727,100.01119 C676.85227,102.15219 677.41027,103.12619 678.80527,104.76319 C679.51427,105.42519 680.80827,105.90719 682.06627,105.82719 C685.76827,105.89119 687.51027,104.39719 689.58927,101.31119 C691.66827,98.2241899 692.81627,94.8411899 693.83527,91.2681899 C696.06927,82.7151899 697.68727,74.0581899 698.68527,65.1491899 C700.10427,52.4351899 702.29927,39.8211899 703.87227,27.1291899 C703.94327,26.6531899 704.01527,26.1761899 704.10827,25.5451899 C704.49827,23.9841899 705.54427,23.0721899 707.15127,23.1541899 C708.62827,23.0441899 709.77027,23.3211899 711.21027,23.3771899 Z M568.00362,23.0319899 C601.274528,23.0319899 625.76687,47.592978 625.76687,80.9535038 C625.76687,114.317661 598.583738,144.03199 565.31283,144.03199 C532.041922,144.03199 507.76687,114.317661 507.76687,80.9535038 C507.76687,47.592978 534.736333,23.0319899 568.00362,23.0319899 Z M186.94077,53.1836899 C193.28077,53.4326899 200.43177,55.2546899 200.21477,60.7586899 L197.90377,119.57369 C197.36577,133.27369 190.15377,132.99069 183.81377,132.74169 C177.30477,132.48569 171.97177,132.24569 172.41077,125.23969 L171.68577,58.3296899 C171.90777,52.6806899 180.43177,52.9276899 186.94077,53.1836899 Z M339.75647,50.5767899 C346.25847,50.7877899 351.17047,54.6597899 350.89647,58.2957899 L349.36347,123.42879 C348.88747,128.40179 336.70247,128.26379 330.20647,127.77579 C323.88047,127.29979 319.28847,126.05379 319.06447,120.05679 L323.36047,62.9117899 C323.63447,59.2757899 323.41247,50.0457899 339.75647,50.5767899 Z M568.00362,56.4469908 C544.387685,56.4469908 541.092101,68.5295588 541.092101,83.4375665 C541.092101,98.3419425 553.1409,110.42451 568.00362,110.42451 C582.869961,110.42451 594.918759,105.943029 594.918759,83.4375665 C594.918759,68.5295588 582.869961,56.4469908 568.00362,56.4469908 Z M639.090946,46.6955825 C640.360453,46.0504891 641.640967,45.8682594 643.027885,46.1816945 C644.330414,46.4769068 645.376106,47.4317907 646.080572,48.5142355 C646.781369,49.5930357 646.931802,51.2075914 646.594246,52.4248862 C646.275034,53.5802229 645.350422,54.8995663 644.246025,55.4571894 C640.143976,57.5273195 635.774083,59.0944954 631.235413,59.9035956 C629.815473,60.1550727 628.575318,60.0639578 627.302142,59.3897077 C626.120694,58.7701265 625.353853,57.585633 624.950252,56.3574044 C624.557659,55.1401096 624.825503,53.5364877 625.467595,52.4503983 C626.058319,51.4481347 627.327826,50.3292439 628.520282,50.1178574 C631.113109,49.6562087 633.654977,48.9566489 636.116159,48.0318328 L636.842,47.751 L637.051846,47.6601474 C637.510483,47.4567334 637.965451,47.2464858 638.416749,47.0284935 Z M492.919054,41.0319899 C494.36419,41.0319899 495.484078,41.6151838 496.555919,42.465382 C496.992047,42.8096772 497.428175,43.146946 497.871695,43.473675 L497.269,43.02 L497.454137,43.1532938 C499.95432,44.9134458 502.646717,46.4106903 505.491759,47.6184787 L506.206177,47.9143801 C507.403681,48.3992039 508.187233,49.7166599 508.567921,50.8373758 C509.000353,52.0986203 508.682497,53.4722878 508.050481,54.6035434 C507.462817,55.6645346 506.169217,56.5428386 504.975409,56.8555148 C504.291648,57.0592814 503.607888,57.0838739 502.924128,56.9433452 C502.236672,56.9117263 501.60096,56.7184994 501.0096,56.3601514 C496.722239,54.6281359 492.84883,52.2180697 489.282189,49.3829044 C488.243613,48.564325 487.829661,47.1520122 487.770525,45.9258998 C487.711389,44.6224967 488.376669,43.3998975 489.282189,42.465382 C490.147053,41.569512 491.655021,41.0319899 492.919054,41.0319899 Z" id="Combined-Shape" fill="#000000"></path>
        </g>
    </g>
</svg>